<svg xmlns="http://www.w3.org/2000/svg" xmlns:xlink="http://www.w3.org/1999/xlink" width="500" zoomAndPan="magnify" viewBox="0 0 375 374.999991" height="500" preserveAspectRatio="xMidYMid meet" version="1.0"><defs><clipPath id="09d450c08c"><path d="M 37.5 37.5 L 336.75 37.5 L 336.75 336.75 L 37.5 336.75 Z M 37.5 37.5 " clip-rule="nonzero"/></clipPath><clipPath id="ff50305d71"><path d="M 155 112 L 220 112 L 220 263.300781 L 155 263.300781 Z M 155 112 " clip-rule="nonzero"/></clipPath></defs><g clip-path="url(#09d450c08c)"><path fill="#e40037" d="M 187.125 37.5 C 104.488281 37.5 37.5 104.488281 37.5 187.125 C 37.5 269.761719 104.488281 336.75 187.125 336.75 C 269.761719 336.75 336.75 269.761719 336.75 187.125 C 336.75 104.488281 269.761719 37.5 187.125 37.5 " fill-opacity="1" fill-rule="nonzero"/></g><path fill="#000000" d="M 133.519531 241.859375 C 130.304688 241.859375 128.160156 240.785156 126.015625 238.640625 L 83.128906 195.753906 C 78.839844 191.464844 78.839844 185.03125 83.128906 180.742188 L 126.015625 137.855469 C 130.304688 133.566406 136.738281 133.566406 141.027344 137.855469 C 145.316406 142.144531 145.316406 148.578125 141.027344 152.867188 L 105.644531 188.25 L 141.027344 223.632812 C 145.316406 227.921875 145.316406 234.351562 141.027344 238.640625 C 138.882812 240.785156 136.738281 241.859375 133.519531 241.859375 Z M 133.519531 241.859375 " fill-opacity="1" fill-rule="nonzero"/><path fill="#000000" d="M 240.738281 241.859375 C 237.523438 241.859375 235.378906 240.785156 233.234375 238.640625 C 228.945312 234.351562 228.945312 227.921875 233.234375 223.632812 L 268.613281 188.25 L 233.234375 152.867188 C 228.945312 148.578125 228.945312 142.144531 233.234375 137.855469 C 237.523438 133.566406 243.953125 133.566406 248.242188 137.855469 L 291.128906 180.742188 C 295.417969 185.03125 295.417969 191.464844 291.128906 195.753906 L 248.242188 238.640625 C 246.097656 240.785156 243.953125 241.859375 240.738281 241.859375 Z M 240.738281 241.859375 " fill-opacity="1" fill-rule="nonzero"/><g clip-path="url(#ff50305d71)"><path fill="#000000" d="M 165.6875 263.300781 C 164.613281 263.300781 163.542969 263.300781 162.46875 262.230469 C 157.109375 260.085938 153.890625 254.726562 156.035156 248.292969 L 198.921875 119.628906 C 201.066406 114.269531 206.429688 111.050781 212.863281 113.195312 C 218.222656 115.339844 221.4375 120.703125 219.292969 127.136719 L 176.40625 255.796875 C 174.265625 260.085938 169.976562 263.300781 165.6875 263.300781 Z M 165.6875 263.300781 " fill-opacity="1" fill-rule="nonzero"/></g></svg>